<?xml version="1.0" standalone="no"?>
<!DOCTYPE svg PUBLIC "-//W3C//DTD SVG 20010904//EN"
 "http://www.w3.org/TR/2001/REC-SVG-20010904/DTD/svg10.dtd">
<svg version="1.0" xmlns="http://www.w3.org/2000/svg"
 width="500.000000pt" height="500.000000pt" viewBox="0 0 500.000000 500.000000"
 preserveAspectRatio="xMidYMid meet">

<g transform="translate(0.000000,500.000000) scale(0.100000,-0.100000)"
fill="#000000" stroke="none">
<path d="M2345 4543 c-46 -7 -368 -109 -401 -126 -16 -8 -40 -27 -53 -41 -14
-15 -56 -36 -101 -51 -43 -14 -99 -40 -125 -57 -54 -36 -119 -128 -136 -192
-6 -23 -17 -61 -25 -85 -9 -29 -10 -49 -4 -61 13 -25 13 -30 -3 -24 -11 4 -16
-38 -24 -203 -6 -114 -9 -221 -7 -238 2 -16 15 -110 29 -208 30 -212 30 -204
8 -185 -35 30 -61 38 -87 28 -31 -11 -34 -30 -6 -30 24 0 104 -60 144 -106 21
-27 30 -50 36 -101 9 -71 26 -102 34 -62 3 13 8 94 11 179 7 179 17 262 45
380 11 47 22 98 25 113 4 19 21 38 52 60 26 18 70 52 98 77 50 46 51 46 133
49 79 2 82 2 93 -23 17 -36 65 -49 152 -41 84 8 88 10 158 70 39 33 61 45 85
45 20 0 44 10 63 26 17 14 47 28 68 31 21 3 45 12 53 19 9 7 42 18 75 24 33 6
80 15 105 21 25 6 100 12 168 14 134 4 178 -6 206 -47 14 -20 14 -23 1 -31
-12 -6 -5 -17 33 -55 27 -26 57 -52 68 -58 17 -10 19 -23 19 -105 0 -78 -4
-101 -22 -136 -13 -25 -18 -45 -13 -48 6 -3 10 -22 10 -41 0 -19 11 -83 24
-142 21 -95 23 -124 18 -259 -2 -84 -2 -153 1 -153 10 0 37 57 37 79 0 54 99
114 193 115 52 1 56 5 29 29 -26 24 -58 21 -109 -8 -52 -31 -53 -26 -17 76 14
41 29 97 34 124 5 28 18 100 29 160 35 189 37 244 11 294 -13 27 -18 46 -12
50 6 3 10 24 10 46 1 31 -5 45 -26 62 -24 21 -25 25 -14 56 17 46 16 49 -18
92 -17 21 -36 59 -44 86 -12 39 -34 68 -128 162 -121 122 -188 170 -338 240
-109 51 -145 63 -215 73 -27 3 -66 13 -85 21 -35 14 -286 26 -345 16z m1165
-666 c0 -18 -2 -19 -10 -7 -13 20 -13 43 0 35 6 -3 10 -16 10 -28z m-1210
-185 c0 -5 -19 -17 -42 -27 -24 -9 -53 -22 -65 -28 -16 -7 -29 -7 -45 2 l-23
12 24 -5 c18 -4 21 -2 12 7 -18 18 -13 24 19 19 17 -2 30 0 30 6 0 6 19 13 43
15 23 2 43 4 45 5 1 1 2 -2 2 -6z m24 -17 c-6 -14 -35 -35 -49 -35 -5 0 46 49
52 50 1 0 0 -7 -3 -15z"/>
<path d="M3032 3808 c7 -19 38 -22 38 -4 0 10 -9 16 -21 16 -12 0 -19 -5 -17
-12z"/>
<path d="M1945 3319 c-31 -18 -105 -92 -105 -105 0 -6 -7 -17 -15 -24 -8 -7
-15 -19 -15 -27 0 -18 32 -9 80 23 19 13 43 24 52 24 10 0 18 5 18 11 0 25
304 -4 383 -36 13 -5 17 -2 17 12 0 22 -31 54 -75 76 -83 41 -299 70 -340 46z"/>
<path d="M2752 3283 c-32 -4 -62 -41 -62 -77 0 -21 18 -30 34 -17 7 6 27 8 43
5 17 -3 39 -1 50 5 14 7 23 7 30 0 7 -7 17 -8 29 -1 29 14 94 7 148 -17 51
-22 75 -20 42 5 -32 23 -2 16 44 -10 27 -15 37 -26 28 -29 -10 -4 -8 -9 6 -21
11 -9 14 -16 8 -16 -7 0 -12 -4 -12 -10 0 -5 11 -10 25 -10 51 0 45 56 -12
115 -60 62 -109 78 -248 81 -66 1 -135 0 -153 -3z"/>
<path d="M2106 3121 c-3 -4 18 -11 46 -14 47 -6 67 -16 145 -72 36 -27 38 2 3
35 -46 43 -178 78 -194 51z"/>
<path d="M2015 3100 c-4 -6 -14 -9 -23 -7 -41 9 -105 -52 -126 -120 -6 -18 -4
-23 12 -23 10 0 27 9 37 20 20 22 98 70 114 70 6 0 17 -16 25 -35 9 -22 24
-37 39 -40 36 -9 83 18 96 56 l11 33 30 -29 c16 -15 27 -31 25 -35 -2 -3 -22
-13 -45 -20 -40 -13 -57 -26 -47 -37 3 -2 30 2 60 11 30 9 65 16 77 16 20 0
18 -4 -19 -46 -37 -43 -44 -64 -20 -64 15 0 87 69 109 106 25 40 25 119 0 119
-8 0 -16 -7 -17 -15 -1 -8 -4 -31 -8 -51 l-6 -37 -27 27 c-52 52 -122 86 -192
92 -36 3 -72 9 -81 13 -10 4 -20 2 -24 -4z"/>
<path d="M2763 3081 c-46 -21 -73 -62 -73 -110 0 -27 5 -31 41 -41 22 -6 53
-10 67 -8 26 4 26 4 -13 23 -22 11 -42 21 -45 23 -7 5 43 42 57 42 6 0 16 -13
21 -29 13 -38 43 -54 86 -45 26 4 38 14 46 35 17 40 24 42 50 14 l23 -25 -49
-22 c-61 -27 -34 -38 32 -13 45 17 67 13 94 -19 17 -22 30 -20 30 3 0 18 -63
77 -123 115 -16 10 -56 24 -90 31 -61 13 -61 13 -19 14 50 1 96 -16 157 -60
51 -37 71 -32 34 7 -68 74 -237 107 -326 65z"/>
<path d="M1393 3038 c-38 -42 -22 -232 54 -646 10 -59 101 -104 155 -76 47 25
47 25 3 219 -9 38 -25 79 -36 91 -25 27 -25 87 1 129 20 32 20 32 0 50 -27 25
-50 13 -51 -27 0 -30 -1 -31 -9 -10 -10 22 -23 27 -73 23 -24 -2 -28 1 -23 16
14 47 36 206 31 223 -9 27 -31 31 -52 8z m91 -414 c49 -27 76 -66 76 -107 0
-14 6 -30 14 -36 17 -14 29 -75 21 -101 -8 -26 -45 -26 -78 0 -22 18 -24 24
-16 53 11 40 12 97 1 97 -5 0 -14 -10 -20 -22 -9 -20 -11 -18 -11 22 -1 27 -9
57 -21 75 -19 28 -25 45 -16 45 2 0 24 -12 50 -26z"/>
<path d="M1970 2985 c0 -20 35 -37 68 -33 l27 3 -36 23 c-42 26 -59 28 -59 7z"/>
<path d="M1470 2934 c0 -21 38 -84 51 -84 13 0 11 14 -7 60 -16 40 -44 55 -44
24z"/>
<path d="M3566 2912 c8 -50 -11 -225 -33 -311 -12 -46 -26 -73 -50 -96 -28
-28 -33 -39 -33 -81 0 -69 -17 -122 -45 -140 -32 -21 -54 -12 -61 26 -9 41
-22 47 -34 15 -14 -37 -13 -43 15 -70 36 -37 77 -33 125 13 36 33 41 44 50
107 10 74 48 182 100 284 42 84 62 166 54 223 -7 53 -16 63 -62 67 l-32 3 6
-40z"/>
<path d="M2700 2891 c0 -5 12 -19 27 -31 32 -25 45 -10 17 21 -18 20 -44 26
-44 10z"/>
<path d="M2770 2820 c0 -12 40 -34 47 -26 9 8 -17 36 -33 36 -8 0 -14 -4 -14
-10z"/>
<path d="M2410 2744 c0 -34 4 -53 10 -49 6 3 10 28 10 56 0 27 -4 49 -10 49
-5 0 -10 -25 -10 -56z"/>
<path d="M3387 2753 c-12 -12 -7 -43 13 -83 22 -42 19 -59 -19 -115 -22 -32
-27 -60 -12 -69 23 -15 128 111 143 171 8 32 -11 40 -32 14 -14 -20 -18 -21
-29 -7 -7 8 -15 33 -18 56 -4 29 -10 40 -23 40 -9 0 -20 -3 -23 -7z"/>
<path d="M2252 2633 c-53 -54 -98 -132 -90 -155 14 -36 198 -91 198 -59 0 6
-12 13 -27 17 -56 12 -83 27 -89 49 -6 25 21 89 61 144 24 32 25 51 4 51 -6 0
-31 -21 -57 -47z"/>
<path d="M2634 2655 c-4 -18 2 -34 29 -67 19 -24 41 -56 48 -73 9 -18 23 -31
37 -33 42 -6 25 37 -50 129 -21 26 -38 52 -38 58 0 21 -20 11 -26 -14z"/>
<path d="M2327 2480 c-25 -16 -12 -30 28 -30 19 0 46 -5 61 -11 20 -7 42 -7
76 2 66 15 116 5 128 -27 12 -30 44 -29 48 1 5 33 -42 69 -86 67 -84 -5 -150
-4 -192 2 -27 4 -52 2 -63 -4z"/>
<path d="M3165 2367 c-4 -10 -3 -23 3 -29 14 -14 21 3 12 27 -7 19 -8 19 -15
2z"/>
<path d="M2489 2333 c-13 -36 -8 -67 14 -71 14 -3 17 4 17 47 0 55 -15 67 -31
24z"/>
<path d="M2840 2344 c0 -3 9 -19 20 -34 27 -38 50 -105 50 -146 0 -36 13 -45
24 -18 14 35 -20 141 -57 182 -20 21 -37 29 -37 16z"/>
<path d="M2055 2287 c-9 -31 -15 -79 -13 -109 4 -63 10 -52 31 62 19 100 7
132 -18 47z"/>
<path d="M2263 2330 c-23 -9 -32 -40 -13 -40 21 0 71 31 65 40 -7 12 -22 12
-52 0z"/>
<path d="M2602 2328 c3 -7 15 -15 27 -16 16 -3 22 1 19 10 -3 7 -15 15 -27 16
-16 3 -22 -1 -19 -10z"/>
<path d="M1665 2320 c-7 -21 27 -151 65 -245 22 -56 34 -112 45 -204 22 -182
25 -193 38 -188 8 3 11 25 9 68 -3 59 -2 62 12 44 23 -30 19 -2 -8 63 -13 31
-27 76 -31 100 -4 24 -17 69 -30 101 -13 31 -36 99 -50 151 -33 113 -41 132
-50 110z"/>
<path d="M2144 2306 c-8 -22 3 -33 18 -18 9 9 9 15 0 24 -9 9 -13 7 -18 -6z"/>
<path d="M3230 2138 c-21 -80 -36 -167 -43 -248 l-10 -125 45 -66 c34 -51 48
-82 58 -135 17 -91 18 -284 1 -409 -31 -242 -51 -375 -66 -443 -8 -40 -15 -94
-15 -120 0 -26 -4 -53 -9 -60 -5 -8 -11 46 -15 129 -5 91 -13 153 -22 171 -17
33 -18 75 -1 82 8 3 6 9 -7 20 -11 9 -23 16 -28 16 -4 0 -24 -26 -44 -57 -20
-32 -47 -71 -60 -86 -13 -16 -24 -35 -24 -43 0 -23 51 -6 80 27 14 16 28 29
32 29 11 0 28 -63 28 -110 0 -25 0 -88 1 -140 0 -81 -28 -389 -48 -527 l-6
-43 962 0 961 0 0 403 0 402 -37 24 c-20 13 -102 45 -182 71 -199 65 -200 66
-336 128 -66 30 -149 65 -185 78 -36 12 -110 41 -165 64 -55 24 -145 58 -200
77 -55 19 -138 48 -185 64 -87 32 -215 107 -283 166 -20 18 -41 33 -45 33 -5
0 -30 39 -56 86 -27 48 -63 103 -81 123 l-33 36 8 120 c5 72 19 160 34 220 26
101 33 165 18 165 -5 0 -24 -55 -42 -122z m184 -717 c-7 -7 -21 12 -29 39 -6
23 -5 23 14 -5 11 -16 18 -31 15 -34z"/>
<path d="M2307 2218 c-32 -11 -56 -22 -53 -25 2 -3 83 -7 178 -9 176 -5 273
-19 233 -34 -32 -12 -382 8 -457 26 -65 15 -88 14 -88 -7 0 -5 21 -19 48 -30
40 -18 79 -23 282 -31 211 -8 244 -7 318 9 101 22 112 43 21 43 -46 0 -78 7
-132 31 -62 27 -78 31 -128 25 -38 -3 -74 -1 -106 9 -57 17 -44 18 -116 -7z"/>
<path d="M2370 1950 l-25 -7 28 -12 c36 -14 177 -15 177 -1 0 26 -118 39 -180
20z"/>
<path d="M2467 1783 c-14 -13 -6 -23 18 -23 28 0 34 15 9 24 -19 7 -19 7 -27
-1z"/>
<path d="M1767 1652 c-9 -10 -41 -71 -72 -135 -30 -64 -57 -117 -60 -117 -3 0
2 16 10 37 18 43 13 52 -17 29 -151 -111 -290 -174 -467 -215 -89 -20 -338
-113 -676 -251 -131 -54 -164 -63 -261 -75 -61 -7 -136 -21 -167 -31 l-57 -19
0 -437 0 -438 906 0 907 0 -9 152 c-4 84 -9 263 -10 398 -1 199 -5 270 -23
380 -14 87 -24 203 -28 327 -6 205 2 285 38 355 29 57 21 79 -14 40z"/>
<path d="M3216 1578 c-5 -57 -16 -92 -50 -163 -41 -82 -133 -230 -175 -280
-10 -11 -38 -54 -64 -95 -25 -42 -57 -88 -71 -103 -18 -20 -26 -39 -26 -64 0
-34 -12 -49 -163 -201 l-164 -164 -39 20 c-21 11 -76 47 -121 81 -45 34 -117
78 -160 99 -56 27 -87 48 -109 78 -52 69 -225 525 -259 681 -19 87 -31 108
-40 72 -7 -27 8 -133 31 -224 15 -59 164 -425 209 -515 27 -53 106 -130 133
-130 25 0 194 -103 272 -165 35 -27 68 -53 74 -58 7 -4 84 65 200 178 103 102
192 185 197 185 23 0 63 68 189 325 151 305 173 364 168 451 -4 84 -24 79 -32
-8z"/>
<path d="M2470 1540 c-12 -8 -12 -10 2 -15 23 -9 50 -3 56 13 4 14 -36 16 -58
2z"/>
<path d="M2613 1480 c-29 -12 -30 -30 -2 -30 25 0 59 17 59 30 0 12 -27 12
-57 0z"/>
<path d="M2392 1474 c-10 -5 -10 -9 -1 -20 13 -16 159 -20 159 -5 0 15 -133
35 -158 25z"/>
<path d="M2390 1250 c0 -16 39 -31 73 -28 l32 3 -32 18 c-35 19 -73 23 -73 7z"/>
<path d="M3175 1219 c-28 -76 -43 -151 -26 -133 11 11 42 136 36 142 -2 3 -7
-1 -10 -9z"/>
<path d="M3207 1033 c-20 -84 -20 -83 -8 -83 12 0 34 102 29 132 -2 14 -11 -5
-21 -49z"/>
<path d="M1857 863 c-4 -3 -7 -17 -7 -31 0 -22 2 -23 17 -11 15 13 16 11 9
-16 -3 -16 -11 -59 -15 -95 -13 -94 -40 -215 -57 -257 -3 -7 1 -13 10 -13 20
0 46 38 46 67 0 13 14 49 32 79 17 31 32 72 33 91 2 34 15 60 15 30 0 -20 16
-23 23 -4 5 15 37 -9 37 -29 0 -7 18 -46 40 -86 22 -40 40 -84 40 -98 0 -14 4
-31 9 -38 14 -24 342 -45 355 -23 8 13 -56 21 -166 21 l-97 0 -60 81 c-34 44
-61 86 -61 94 0 7 -10 26 -23 42 -13 15 -40 60 -61 98 -21 39 -45 78 -54 88
-15 17 -53 23 -65 10z"/>
<path d="M2872 745 c-20 -19 -32 -35 -26 -35 5 0 25 16 44 35 44 45 31 45 -18
0z"/>
<path d="M2793 653 c-25 -10 -9 -73 19 -73 4 0 8 18 8 40 0 40 -3 43 -27 33z"/>
<path d="M2675 510 c-4 -6 12 -10 39 -10 25 0 46 5 46 10 0 6 -18 10 -39 10
-22 0 -43 -4 -46 -10z"/>
<path d="M2435 402 c-26 -16 -29 -23 -27 -59 3 -41 -11 -83 -27 -83 -5 0 -12
16 -15 35 -4 19 -11 35 -16 35 -11 0 -16 -106 -12 -233 3 -85 6 -98 20 -95 12
2 19 19 24 58 15 110 38 207 63 269 33 81 31 97 -10 73z"/>
</g>
</svg>
